<svg width="125" height="178" fill="none" xmlns="http://www.w3.org/2000/svg"><g filter="url(#a)"><path d="M71.704 115.95c0-7.146 0-9.93 3.527-15.776 3.062-5.012 8.538-8.724 14.384-15.035 8.445-8.909 14.57-19.303 14.57-32.017 0-8.538-3.062-17.262-8.538-23.573C87.667 19.898 74.952 16 61.31 16c-8.91 0-18.097 2.691-25.243 7.796-9.095 6.31-14.756 17.54-15.962 29.883h23.572c-.186-5.105 1.578-9.652 5.29-12.622 3.155-2.784 8.074-3.99 13.178-3.99 6.125 0 11.972 1.763 15.406 6.31 2.227 2.692 2.97 6.311 2.97 10.394 0 6.404-1.3 11.6-6.219 17.17-9.373 9.93-15.962 11.785-20.88 21.53-3.898 6.867-5.383 14.941-5.383 23.479h23.665ZM59.918 154c7.795 0 13.456-5.847 13.456-13.364s-5.66-13.364-13.456-13.364c-7.61 0-13.364 5.847-13.364 13.364S52.308 154 59.918 154Z" fill="#FD5252"/></g><defs><filter id="a" x=".105" y="0" width="124.081" height="178" filterUnits="userSpaceOnUse" color-interpolation-filters="sRGB"><feFlood flood-opacity="0" result="BackgroundImageFix"/><feColorMatrix in="SourceAlpha" values="0 0 0 0 0 0 0 0 0 0 0 0 0 0 0 0 0 0 127 0" result="hardAlpha"/><feOffset dy="4"/><feGaussianBlur stdDeviation="10"/><feComposite in2="hardAlpha" operator="out"/><feColorMatrix values="0 0 0 0 0 0 0 0 0 0 0 0 0 0 0 0 0 0 0.63 0"/><feBlend in2="BackgroundImageFix" result="effect1_dropShadow_1_198"/><feBlend in="SourceGraphic" in2="effect1_dropShadow_1_198" result="shape"/></filter></defs></svg>